<svg width="134" height="42" viewBox="0 0 134 42" fill="none" xmlns="http://www.w3.org/2000/svg">
<g id="android">
<path id="Vector" d="M133.106 37.0441C133.106 37.5727 133.007 38.0962 132.816 38.5845C132.625 39.0728 132.344 39.5164 131.99 39.89C131.637 40.2636 131.217 40.5598 130.755 40.7617C130.293 40.9636 129.798 41.0673 129.298 41.0667H4.69531C3.6854 41.0678 2.71642 40.6447 2.00146 39.8903C1.28651 39.136 0.884129 38.1122 0.882812 37.0441V4.96534C0.884128 3.89679 1.28635 2.87246 2.00116 2.11728C2.71597 1.36209 3.68494 0.937777 4.69531 0.9375H129.297C129.797 0.9375 130.293 1.04169 130.755 1.24412C131.217 1.44655 131.636 1.74326 131.99 2.11729C132.344 2.49132 132.624 2.93536 132.815 3.42403C133.007 3.9127 133.105 4.43644 133.105 4.96534L133.106 37.0441Z" fill="white"/>
<path id="Vector_2" d="M129.299 41.9998H4.69636C3.45226 41.9995 2.25908 41.4773 1.37863 40.5477C0.498174 39.6181 0.00236717 38.3571 0 37.0414L0 4.96364C0.00184046 3.64725 0.49732 2.38538 1.37774 1.45485C2.25817 0.524321 3.45165 0.00111108 4.69636 0L129.298 0C130.543 0.00166548 131.736 0.525053 132.616 1.45547C133.497 2.38588 133.992 3.64742 133.995 4.96364V37.0414C133.997 39.7763 131.886 41.9998 129.299 41.9998Z" fill="#333333"/>
<path id="Vector_3" d="M133.106 37.0441C133.106 37.5727 133.007 38.0962 132.816 38.5845C132.625 39.0728 132.344 39.5164 131.99 39.89C131.637 40.2636 131.217 40.5598 130.755 40.7617C130.293 40.9636 129.798 41.0673 129.298 41.0667H4.69531C3.6854 41.0678 2.71642 40.6447 2.00146 39.8903C1.28651 39.136 0.884129 38.1122 0.882812 37.0441V4.96534C0.884128 3.89679 1.28635 2.87246 2.00116 2.11728C2.71597 1.36209 3.68494 0.937777 4.69531 0.9375H129.297C129.797 0.9375 130.293 1.04169 130.755 1.24412C131.217 1.44655 131.636 1.74326 131.99 2.11729C132.344 2.49132 132.624 2.93536 132.815 3.42403C133.007 3.9127 133.105 4.43644 133.105 4.96534L133.106 37.0441Z" fill="#333333"/>
<path id="Vector_4" d="M33.3688 21.2424C33.3434 18.1911 35.6804 16.7067 35.7872 16.6376C34.4637 14.552 32.4123 14.2671 31.6914 14.2443C29.9684 14.0484 28.2972 15.3586 27.4195 15.3586C26.5243 15.3586 25.1727 14.2633 23.7161 14.2955C21.8416 14.3267 20.0879 15.4997 19.1262 17.3211C17.1413 21.035 18.6216 26.4928 20.5233 29.4948C21.4745 30.966 22.5861 32.6066 24.041 32.5488C25.4644 32.4864 25.9961 31.569 27.7138 31.569C29.4157 31.569 29.915 32.5488 31.3988 32.5119C32.9265 32.4864 33.8882 31.0351 34.8062 29.5516C35.9055 27.8674 36.347 26.2069 36.3645 26.1217C36.3294 26.1084 33.3986 24.8985 33.3688 21.2424ZM30.5658 12.2695C31.3314 11.2348 31.8552 9.82701 31.7098 8.39844C30.6017 8.45145 29.216 9.2268 28.418 10.2388C27.712 11.1306 27.0814 12.5923 27.2443 13.9669C28.489 14.0673 29.767 13.2882 30.5658 12.2695Z" fill="white"/>
<path id="Vector_5" d="M129.305 0H62.5625L88.7043 41.9998H129.305C130.549 41.9987 131.742 41.4757 132.623 40.5457C133.503 39.6156 133.999 38.3543 134.001 37.0382V4.96364C133.999 3.64734 133.504 2.38563 132.623 1.45516C131.743 0.524687 130.549 0.00138839 129.305 0Z" fill="url(#paint0_linear_6333_2962)"/>
<path id="Vector_6" d="M54.9547 32.0173H52.9378L51.8329 28.317H47.9927L46.9402 32.0173H44.9766L48.7822 19.4198H51.1322L54.9547 32.0173ZM51.4999 26.7646L50.5007 23.4751C50.3951 23.139 50.1961 22.3477 49.9048 21.1019H49.8693C49.752 21.6377 49.5647 22.4291 49.308 23.4751L48.3257 26.7646H51.4999ZM64.7224 27.3638C64.7224 28.9086 64.329 30.1298 63.5412 31.0262C62.836 31.8242 61.9594 32.2227 60.9141 32.2227C59.7853 32.2227 58.9735 31.7939 58.4806 30.9344V35.7006H56.5871V25.9192C56.5871 24.949 56.5631 23.9541 56.5169 22.9336H58.1822L58.2879 24.3734H58.3234C58.9549 23.2886 59.9132 22.7462 61.1992 22.7462C62.2045 22.7462 63.0438 23.1693 63.7153 24.0166C64.3858 24.8657 64.7224 25.9808 64.7224 27.3638ZM62.7934 27.4376C62.7934 26.5535 62.6069 25.8246 62.2321 25.25C61.8226 24.6527 61.2729 24.3536 60.5837 24.3536C60.1165 24.3536 59.692 24.5202 59.3128 24.8486C58.9327 25.1799 58.684 25.6125 58.5676 26.1483C58.5157 26.3487 58.4862 26.5549 58.4797 26.7627V28.2782C58.4797 28.938 58.6698 29.4955 59.0499 29.9518C59.43 30.4062 59.9238 30.6343 60.5313 30.6343C61.2445 30.6343 61.7996 30.3399 62.1965 29.7559C62.5944 29.1699 62.7934 28.3975 62.7934 27.4376ZM74.5247 27.3638C74.5247 28.9086 74.1313 30.1298 73.3435 31.0262C72.6374 31.8242 71.7617 32.2227 70.7155 32.2227C69.5867 32.2227 68.7749 31.7939 68.282 30.9344V35.7006H66.3885V25.9192C66.3885 24.949 66.3645 23.9541 66.3184 22.9336H67.9836L68.0893 24.3734H68.1248C68.7554 23.2886 69.7137 22.7462 71.0006 22.7462C72.0051 22.7462 72.8444 23.1693 73.5176 24.0166C74.1872 24.8657 74.5247 25.9808 74.5247 27.3638ZM72.5948 27.4376C72.5948 26.5535 72.4074 25.8246 72.0326 25.25C71.6232 24.6527 71.0752 24.3536 70.386 24.3536C69.9189 24.3536 69.4943 24.5202 69.1133 24.8486C68.7332 25.1799 68.4854 25.6125 68.3691 26.1483C68.3113 26.3982 68.2803 26.6017 68.2803 26.7627V28.2782C68.2803 28.938 68.4712 29.4955 68.8495 29.9518C69.2297 30.4052 69.7235 30.6343 70.3327 30.6343C71.0468 30.6343 71.6019 30.3399 71.998 29.7559C72.3959 29.1699 72.5948 28.3975 72.5948 27.4376ZM85.4843 28.4836C85.4843 29.5561 85.1326 30.4279 84.4336 31.101C83.6645 31.8356 82.5907 32.2038 81.2141 32.2038C79.9423 32.2038 78.9227 31.9425 78.1536 31.419L78.5915 29.7369C79.4219 30.2613 80.334 30.5226 81.3269 30.5226C82.041 30.5226 82.596 30.3503 82.9922 30.0086C83.3891 29.6659 83.5899 29.2078 83.5899 28.636C83.5899 28.1239 83.4238 27.6951 83.0978 27.3458C82.7701 26.9974 82.2284 26.6727 81.4672 26.3746C79.3979 25.552 78.3623 24.3488 78.3623 22.7661C78.3623 21.7324 78.7282 20.8861 79.4583 20.2244C80.1883 19.5637 81.1564 19.2333 82.3607 19.2333C83.4362 19.2333 84.3323 19.4331 85.0437 19.8316L84.5686 21.4768C83.8989 21.0906 83.1431 20.8975 82.2976 20.8975C81.6298 20.8975 81.1058 21.0726 80.731 21.421C80.4157 21.7324 80.2558 22.112 80.2558 22.5626C80.2558 23.0595 80.4379 23.4723 80.8002 23.796C81.1146 24.0942 81.6884 24.4189 82.5179 24.7672C83.5357 25.2046 84.2835 25.7138 84.7622 26.2988C85.2445 26.8838 85.4843 27.6137 85.4843 28.4836ZM91.7607 24.4482H89.6736V28.8585C89.6736 29.9802 90.0413 30.5396 90.7784 30.5396C91.1168 30.5396 91.3974 30.5094 91.6195 30.4459L91.6719 31.9785C91.2989 32.1271 90.8077 32.2019 90.1993 32.2019C89.4515 32.2019 88.8671 31.9586 88.4453 31.4721C88.0252 30.9855 87.8138 30.1705 87.8138 29.0232V24.4444H86.5704V22.9298H87.8138V21.2667L89.6736 20.6684V22.9298H91.7607V24.4482ZM101.159 27.4007C101.159 28.7969 100.784 29.9433 100.036 30.8397C99.2538 31.7627 98.213 32.2227 96.9154 32.2227C95.6631 32.2227 94.6675 31.7807 93.9251 30.8975C93.1826 30.0124 92.8113 28.8973 92.8113 27.5521C92.8113 26.1445 93.195 24.9916 93.9597 24.0951C94.7262 23.1977 95.7582 22.749 97.0557 22.749C98.3062 22.749 99.3107 23.1921 100.071 24.0762C100.797 24.9338 101.159 26.0414 101.159 27.4007ZM99.1961 27.4471C99.1961 26.615 99.0274 25.9013 98.689 25.3039C98.292 24.5826 97.7236 24.222 96.9873 24.222C96.2289 24.222 95.6471 24.5826 95.251 25.3039C94.9118 25.9013 94.743 26.6273 94.743 27.4849C94.743 28.318 94.9118 29.0336 95.251 29.629C95.6605 30.3503 96.2315 30.711 96.9713 30.711C97.6952 30.711 98.2627 30.3428 98.673 29.611C99.0212 28.9995 99.1961 28.281 99.1961 27.4471ZM107.316 24.7085C107.119 24.6706 106.92 24.6519 106.719 24.6527C106.053 24.6527 105.538 24.9196 105.176 25.4573C104.862 25.9306 104.703 26.5289 104.703 27.2511V32.0173H102.81V25.7943C102.812 24.8407 102.793 23.8873 102.755 22.9346H104.404L104.473 24.6726H104.526C104.727 24.0752 105.041 23.5934 105.473 23.2328C105.868 22.9176 106.348 22.747 106.841 22.7462C107.016 22.7462 107.174 22.7595 107.315 22.7831L107.316 24.7085ZM115.785 27.0457C115.789 27.3525 115.766 27.6591 115.715 27.9611H110.035C110.056 28.8585 110.332 29.5457 110.859 30.019C111.338 30.4412 111.957 30.6532 112.717 30.6532C113.558 30.6532 114.325 30.5112 115.016 30.2244L115.312 31.6245C114.506 31.9993 113.554 32.1858 112.455 32.1858C111.133 32.1858 110.096 31.7712 109.341 30.9438C108.588 30.1156 108.211 29.0024 108.211 27.608C108.211 26.2392 108.561 25.0985 109.264 24.1888C109.999 23.2176 110.993 22.732 112.244 22.732C113.472 22.732 114.402 23.2176 115.033 24.1888C115.533 24.9584 115.785 25.9126 115.785 27.0457ZM113.979 26.5222C113.992 25.923 113.868 25.4071 113.611 24.9707C113.284 24.4085 112.779 24.1283 112.103 24.1283C111.484 24.1283 110.98 24.4018 110.596 24.9509C110.281 25.3872 110.093 25.9117 110.036 26.5203L113.979 26.5222ZM47.4465 14.966C46.9198 14.966 46.4642 14.9386 46.085 14.8922V8.80169C46.6154 8.71436 47.1513 8.67132 47.688 8.67295C49.8595 8.67295 50.8595 9.81173 50.8595 11.668C50.8595 13.8093 49.6783 14.966 47.4465 14.966ZM47.7644 9.45391C47.4713 9.45391 47.2218 9.47284 47.0148 9.51828V14.1481C47.1267 14.1671 47.3417 14.1756 47.6436 14.1756C49.0664 14.1756 49.8764 13.3123 49.8764 11.6955C49.8764 10.2538 49.1437 9.45391 47.7644 9.45391ZM53.976 15.0124C52.7522 15.0124 51.9591 14.0383 51.9591 12.7159C51.9591 11.3377 52.769 10.3551 54.0453 10.3551C55.2514 10.3551 56.0622 11.2828 56.0622 12.643C56.0622 14.0383 55.2265 15.0124 53.976 15.0124ZM54.0115 11.0802C53.3392 11.0802 52.9085 11.7504 52.9085 12.6875C52.9085 13.6067 53.3481 14.2769 54.0026 14.2769C54.6572 14.2769 55.0968 13.5603 55.0968 12.6686C55.0968 11.7598 54.6661 11.0802 54.0115 11.0802ZM63.0412 10.4469L61.7312 14.9111H60.8777L60.335 12.9725C60.2001 12.4982 60.0878 12.0171 59.9984 11.5308H59.9807C59.9123 12.0173 59.7826 12.5048 59.6449 12.9725L59.0677 14.9111H58.2053L56.9726 10.4469H57.9291L58.4033 12.5692C58.5152 13.0747 58.6094 13.5518 58.6875 14.0024H58.7053C58.7737 13.6266 58.8856 13.157 59.0499 12.5787L59.6449 10.4478H60.4034L60.9727 12.5332C61.1104 13.0387 61.2223 13.5347 61.3093 14.0033H61.3342C61.3946 13.5442 61.4896 13.0567 61.6184 12.5332L62.1273 10.4478L63.0412 10.4469ZM67.8637 14.9111H66.933V12.3477C66.933 11.5582 66.6488 11.1625 66.0883 11.1625C65.5368 11.1625 65.1576 11.668 65.1576 12.2559V14.9111H64.2268V11.7229C64.2268 11.3282 64.2179 10.9051 64.1922 10.446H65.011L65.0546 11.1351H65.0803C65.3308 10.658 65.8388 10.3551 66.4081 10.3551C67.2873 10.3551 67.8646 11.0717 67.8646 12.2379L67.8637 14.9111ZM70.4304 14.9111H69.4988V8.39844H70.4304V14.9111ZM73.824 15.0124C72.601 15.0124 71.807 14.0383 71.807 12.7159C71.807 11.3377 72.617 10.3551 73.8924 10.3551C75.0993 10.3551 75.9093 11.2828 75.9093 12.643C75.9102 14.0383 75.0736 15.0124 73.824 15.0124ZM73.8586 11.0802C73.1863 11.0802 72.7555 11.7504 72.7555 12.6875C72.7555 13.6067 73.1961 14.2769 73.8488 14.2769C74.5043 14.2769 74.943 13.5603 74.943 12.6686C74.9439 11.7598 74.514 11.0802 73.8586 11.0802ZM79.5791 14.9111L79.5116 14.3971H79.4867C79.2025 14.8108 78.7877 15.0124 78.262 15.0124C77.5115 15.0124 76.9786 14.452 76.9786 13.6985C76.9786 12.5967 77.8747 12.0268 79.4263 12.0268V11.9444C79.4263 11.3566 79.1341 11.0622 78.5568 11.0622C78.1438 11.0622 77.7815 11.173 77.4626 11.3935L77.2735 10.7413C77.6607 10.4838 78.1438 10.3551 78.7114 10.3551C79.8055 10.3551 80.358 10.9704 80.358 12.2019V13.8462C80.358 14.2968 80.3766 14.6461 80.4183 14.9121L79.5791 14.9111ZM79.4512 12.6875C78.4174 12.6875 77.8987 12.9545 77.8987 13.5878C77.8987 14.0563 78.166 14.2854 78.5373 14.2854C79.0107 14.2854 79.4512 13.9001 79.4512 13.3767V12.6875ZM84.8777 14.9111L84.8341 14.1945H84.8084C84.5411 14.736 84.0917 15.0124 83.4637 15.0124C82.4539 15.0124 81.7061 14.0658 81.7061 12.7339C81.7061 11.3377 82.4815 10.3541 83.5401 10.3541C84.1005 10.3541 84.4975 10.5558 84.7213 10.9609H84.74V8.39844H85.6716V13.708C85.6716 14.1396 85.6814 14.5438 85.7063 14.9111H84.8777ZM84.74 12.2843C84.74 11.6595 84.3519 11.1266 83.7595 11.1266C83.0694 11.1266 82.6476 11.7788 82.6476 12.697C82.6476 13.5972 83.0854 14.2135 83.7409 14.2135C84.3261 14.2135 84.74 13.6711 84.74 13.0283V12.2843ZM91.5786 15.0124C90.3557 15.0124 89.5626 14.0383 89.5626 12.7159C89.5626 11.3377 90.3725 10.3551 91.6479 10.3551C92.8549 10.3551 93.6648 11.2828 93.6648 12.643C93.6657 14.0383 92.83 15.0124 91.5786 15.0124ZM91.6133 11.0802C90.9418 11.0802 90.5111 11.7504 90.5111 12.6875C90.5111 13.6067 90.9507 14.2769 91.6044 14.2769C92.2598 14.2769 92.6985 13.5603 92.6985 12.6686C92.7003 11.7598 92.2696 11.0802 91.6133 11.0802ZM98.6703 14.9111H97.7387V12.3477C97.7387 11.5582 97.4545 11.1625 96.8941 11.1625C96.3426 11.1625 95.9642 11.668 95.9642 12.2559V14.9111H95.0326V11.7229C95.0326 11.3282 95.0237 10.9051 94.9979 10.446H95.8168L95.8603 11.1351H95.886C96.1356 10.658 96.6445 10.3541 97.2129 10.3541C98.0922 10.3541 98.6703 11.0707 98.6703 12.2369V14.9111ZM104.933 11.1909H103.909V13.3587C103.909 13.9105 104.088 14.186 104.45 14.186C104.615 14.186 104.752 14.1671 104.863 14.1396L104.889 14.8931C104.709 14.967 104.467 15.0039 104.167 15.0039C103.433 15.0039 102.995 14.5722 102.995 13.442V11.1909H102.384V10.4469H102.995V9.62903L103.909 9.33463V10.446H104.933V11.1909ZM109.86 14.9111H108.93V12.3666C108.93 11.5677 108.647 11.1635 108.085 11.1635C107.603 11.1635 107.154 11.5128 107.154 12.2199V14.9111H106.224V8.39844H107.154V11.0802H107.172C107.466 10.5936 107.89 10.3541 108.432 10.3541C109.318 10.3541 109.86 11.0887 109.86 12.2559V14.9111ZM114.908 12.9176H112.115C112.133 13.7629 112.658 14.24 113.435 14.24C113.848 14.24 114.228 14.1661 114.563 14.0289L114.708 14.718C114.312 14.9016 113.846 14.9935 113.303 14.9935C111.993 14.9935 111.218 14.1112 111.218 12.7434C111.218 11.3746 112.012 10.3456 113.198 10.3456C114.269 10.3456 114.94 11.1909 114.94 12.4679C114.946 12.6186 114.935 12.7695 114.908 12.9176ZM114.055 12.2104C114.055 11.5213 113.729 11.0347 113.134 11.0347C112.599 11.0347 112.176 11.5308 112.116 12.2104H114.055Z" fill="white"/>
</g>
<defs>
<linearGradient id="paint0_linear_6333_2962" x1="98.2807" y1="42.1113" x2="98.2807" y2="-109.36" gradientUnits="userSpaceOnUse">
<stop stop-color="#1A1A1A" stop-opacity="0.1"/>
<stop offset="0.123" stop-color="#212121" stop-opacity="0.151"/>
<stop offset="0.308" stop-color="#353535" stop-opacity="0.227"/>
<stop offset="0.532" stop-color="#575757" stop-opacity="0.318"/>
<stop offset="0.783" stop-color="#858585" stop-opacity="0.421"/>
<stop offset="1" stop-color="#B3B3B3" stop-opacity="0.51"/>
</linearGradient>
</defs>
</svg>
