<svg width="134" height="42" viewBox="0 0 134 42" fill="none" xmlns="http://www.w3.org/2000/svg">
<g id="apple">
<path id="Vector" d="M133.11 37.0441C133.11 37.5727 133.012 38.0962 132.82 38.5845C132.629 39.0728 132.348 39.5164 131.995 39.89C131.641 40.2636 131.221 40.5598 130.759 40.7617C130.297 40.9636 129.802 41.0673 129.302 41.0667H4.69544C3.68549 41.0678 2.71648 40.6447 2.0015 39.8903C1.28652 39.136 0.884129 38.1122 0.882812 37.0441V4.96534C0.884128 3.89679 1.28636 2.87246 2.0012 2.11728C2.71603 1.36209 3.68503 0.937777 4.69544 0.9375H129.301C129.802 0.9375 130.297 1.04169 130.759 1.24412C131.221 1.44655 131.641 1.74326 131.994 2.11729C132.348 2.49132 132.628 2.93536 132.82 3.42403C133.011 3.9127 133.109 4.43644 133.109 4.96534L133.11 37.0441Z" fill="white"/>
<path id="Vector_2" d="M129.303 41.9998H4.69651C3.45237 41.9995 2.25915 41.4773 1.37867 40.5477C0.49819 39.6181 0.00236725 38.3571 0 37.0414L0 4.96364C0.00184052 3.64725 0.497336 2.38538 1.37779 1.45485C2.25824 0.524321 3.45176 0.00111108 4.69651 0L129.303 0C130.547 0.00166548 131.74 0.525053 132.621 1.45547C133.501 2.38588 133.997 3.64742 133.999 4.96364V37.0414C134.001 39.7763 131.891 41.9998 129.303 41.9998Z" fill="#333333"/>
<path id="Vector_3" d="M133.11 37.0441C133.11 37.5727 133.012 38.0962 132.82 38.5845C132.629 39.0728 132.348 39.5164 131.995 39.89C131.641 40.2636 131.221 40.5598 130.759 40.7617C130.297 40.9636 129.802 41.0673 129.302 41.0667H4.69544C3.68549 41.0678 2.71648 40.6447 2.0015 39.8903C1.28652 39.136 0.884129 38.1122 0.882812 37.0441V4.96534C0.884128 3.89679 1.28636 2.87246 2.0012 2.11728C2.71603 1.36209 3.68503 0.937777 4.69544 0.9375H129.301C129.802 0.9375 130.297 1.04169 130.759 1.24412C131.221 1.44655 131.641 1.74326 131.994 2.11729C132.348 2.49132 132.628 2.93536 132.82 3.42403C133.011 3.9127 133.109 4.43644 133.109 4.96534L133.11 37.0441Z" fill="#333333"/>
<path id="Vector_4" d="M33.3649 21.2424C33.3395 18.1911 35.6765 16.7067 35.7833 16.6376C34.4598 14.552 32.4084 14.2671 31.6875 14.2443C29.9645 14.0484 28.2933 15.3586 27.4156 15.3586C26.5204 15.3586 25.1688 14.2633 23.7121 14.2955C21.8377 14.3267 20.084 15.4997 19.1223 17.3211C17.1374 21.035 18.6177 26.4928 20.5194 29.4948C21.4706 30.966 22.5822 32.6066 24.0371 32.5488C25.4605 32.4864 25.9922 31.569 27.7099 31.569C29.4118 31.569 29.9111 32.5488 31.3949 32.5119C32.9225 32.4864 33.8843 31.0351 34.8023 29.5516C35.9016 27.8674 36.3431 26.2069 36.3606 26.1217C36.3255 26.1084 33.3947 24.8985 33.3649 21.2424ZM30.5619 12.2695C31.3275 11.2348 31.8513 9.82701 31.7059 8.39844C30.5978 8.45145 29.2121 9.2268 28.4141 10.2388C27.7081 11.1306 27.0775 12.5923 27.2404 13.9669C28.4851 14.0673 29.7631 13.2882 30.5619 12.2695Z" fill="white"/>
<path id="Vector_5" d="M129.302 0H62.5586L88.7007 41.9998H129.302C130.546 41.9987 131.739 41.4757 132.62 40.5457C133.5 39.6156 133.996 38.3543 133.998 37.0382V4.96364C133.996 3.64734 133.501 2.38563 132.62 1.45516C131.74 0.524687 130.547 0.00138839 129.302 0V0Z" fill="url(#paint0_linear_6333_2955)"/>
<path id="Vector_6" d="M54.951 32.0173H52.934L51.8291 28.317H47.9888L46.9363 32.0173H44.9727L48.7784 19.4198H51.1284L54.951 32.0173ZM51.4961 26.7646L50.4969 23.4751C50.3912 23.139 50.1923 22.3477 49.901 21.1019H49.8654C49.7482 21.6377 49.5608 22.4291 49.3041 23.4751L48.3219 26.7646H51.4961ZM64.7188 27.3638C64.7188 28.9086 64.3253 30.1298 63.5376 31.0262C62.8324 31.8242 61.9558 32.2227 60.9104 32.2227C59.7816 32.2227 58.9698 31.7939 58.4769 30.9344V35.7006H56.5834V25.9192C56.5834 24.949 56.5594 23.9541 56.5132 22.9336H58.1785L58.2842 24.3734H58.3197C58.9512 23.2886 59.9095 22.7462 61.1955 22.7462C62.2009 22.7462 63.0402 23.1693 63.7116 24.0166C64.3822 24.8657 64.7188 25.9808 64.7188 27.3638ZM62.7897 27.4376C62.7897 26.5535 62.6032 25.8246 62.2284 25.25C61.819 24.6527 61.2692 24.3536 60.58 24.3536C60.1129 24.3536 59.6883 24.5202 59.3091 24.8486C58.929 25.1799 58.6803 25.6125 58.5639 26.1483C58.512 26.3487 58.4825 26.5549 58.476 26.7627V28.2782C58.476 28.938 58.6661 29.4955 59.0462 29.9518C59.4263 30.4062 59.9201 30.6343 60.5276 30.6343C61.2408 30.6343 61.7959 30.3399 62.1929 29.7559C62.5908 29.1699 62.7897 28.3975 62.7897 27.4376ZM74.5212 27.3638C74.5212 28.9086 74.1278 30.1298 73.34 31.0262C72.6339 31.8242 71.7582 32.2227 70.712 32.2227C69.5832 32.2227 68.7714 31.7939 68.2785 30.9344V35.7006H66.3849V25.9192C66.3849 24.949 66.361 23.9541 66.3148 22.9336H67.9801L68.0857 24.3734H68.1213C68.7519 23.2886 69.7102 22.7462 70.9971 22.7462C72.0016 22.7462 72.8409 23.1693 73.5141 24.0166C74.1837 24.8657 74.5212 25.9808 74.5212 27.3638ZM72.5913 27.4376C72.5913 26.5535 72.4039 25.8246 72.0291 25.25C71.6197 24.6527 71.0717 24.3536 70.3825 24.3536C69.9153 24.3536 69.4908 24.5202 69.1098 24.8486C68.7296 25.1799 68.4819 25.6125 68.3655 26.1483C68.3078 26.3982 68.2767 26.6017 68.2767 26.7627V28.2782C68.2767 28.938 68.4676 29.4955 68.846 29.9518C69.2261 30.4052 69.7199 30.6343 70.3292 30.6343C71.0433 30.6343 71.5984 30.3399 71.9945 29.7559C72.3924 29.1699 72.5913 28.3975 72.5913 27.4376ZM85.481 28.4836C85.481 29.5561 85.1292 30.4279 84.4303 31.101C83.6611 31.8356 82.5874 32.2038 81.2108 32.2038C79.9389 32.2038 78.9193 31.9425 78.1502 31.419L78.5881 29.7369C79.4185 30.2613 80.3306 30.5226 81.3235 30.5226C82.0376 30.5226 82.5927 30.3503 82.9888 30.0086C83.3858 29.6659 83.5865 29.2078 83.5865 28.636C83.5865 28.1239 83.4205 27.6951 83.0945 27.3458C82.7668 26.9974 82.225 26.6727 81.4639 26.3746C79.3945 25.552 78.3589 24.3488 78.3589 22.7661C78.3589 21.7324 78.7248 20.8861 79.4549 20.2244C80.1849 19.5637 81.153 19.2333 82.3573 19.2333C83.4329 19.2333 84.329 19.4331 85.0404 19.8316L84.5653 21.4768C83.8956 21.0906 83.1398 20.8975 82.2943 20.8975C81.6264 20.8975 81.1024 21.0726 80.7276 21.421C80.4123 21.7324 80.2524 22.112 80.2524 22.5626C80.2524 23.0595 80.4345 23.4723 80.7969 23.796C81.1113 24.0942 81.685 24.4189 82.5145 24.7672C83.5324 25.2046 84.2802 25.7138 84.7589 26.2988C85.2411 26.8838 85.481 27.6137 85.481 28.4836ZM91.7575 24.4482H89.6703V28.8585C89.6703 29.9802 90.038 30.5396 90.7752 30.5396C91.1136 30.5396 91.3942 30.5094 91.6163 30.4459L91.6687 31.9785C91.2956 32.1271 90.8045 32.2019 90.1961 32.2019C89.4483 32.2019 88.8639 31.9586 88.442 31.4721C88.0219 30.9855 87.8106 30.1705 87.8106 29.0232V24.4444H86.5672V22.9298H87.8106V21.2667L89.6703 20.6684V22.9298H91.7575V24.4482ZM101.156 27.4007C101.156 28.7969 100.781 29.9433 100.033 30.8397C99.2508 31.7627 98.2098 32.2227 96.9123 32.2227C95.66 32.2227 94.6644 31.7807 93.9219 30.8975C93.1794 30.0124 92.8081 28.8973 92.8081 27.5521C92.8081 26.1445 93.1918 24.9916 93.9565 24.0951C94.723 23.1977 95.755 22.749 97.0526 22.749C98.3031 22.749 99.3076 23.1921 100.068 24.0762C100.794 24.9338 101.156 26.0414 101.156 27.4007ZM99.193 27.4471C99.193 26.615 99.0243 25.9013 98.6859 25.3039C98.2889 24.5826 97.7205 24.222 96.9842 24.222C96.2257 24.222 95.644 24.5826 95.2479 25.3039C94.9086 25.9013 94.7399 26.6273 94.7399 27.4849C94.7399 28.318 94.9086 29.0336 95.2479 29.629C95.6573 30.3503 96.2284 30.711 96.9682 30.711C97.6921 30.711 98.2596 30.3428 98.6699 29.611C99.0181 28.9995 99.193 28.281 99.193 27.4471ZM107.313 24.7085C107.116 24.6706 106.917 24.6519 106.716 24.6527C106.05 24.6527 105.535 24.9196 105.173 25.4573C104.858 25.9306 104.7 26.5289 104.7 27.2511V32.0173H102.807V25.7943C102.809 24.8407 102.79 23.8873 102.752 22.9346H104.401L104.47 24.6726H104.523C104.724 24.0752 105.038 23.5934 105.47 23.2328C105.865 22.9176 106.345 22.747 106.838 22.7462C107.013 22.7462 107.171 22.7595 107.312 22.7831L107.313 24.7085ZM115.782 27.0457C115.787 27.3525 115.763 27.6591 115.713 27.9611H110.032C110.053 28.8585 110.329 29.5457 110.856 30.019C111.335 30.4412 111.954 30.6532 112.714 30.6532C113.555 30.6532 114.323 30.5112 115.013 30.2244L115.309 31.6245C114.503 31.9993 113.551 32.1858 112.452 32.1858C111.131 32.1858 110.093 31.7712 109.338 30.9438C108.585 30.1156 108.208 29.0024 108.208 27.608C108.208 26.2392 108.559 25.0985 109.261 24.1888C109.996 23.2176 110.99 22.732 112.241 22.732C113.469 22.732 114.399 23.2176 115.03 24.1888C115.53 24.9584 115.782 25.9126 115.782 27.0457ZM113.976 26.5222C113.99 25.923 113.865 25.4071 113.609 24.9707C113.281 24.4085 112.776 24.1283 112.1 24.1283C111.481 24.1283 110.977 24.4018 110.593 24.9509C110.278 25.3872 110.091 25.9117 110.033 26.5203L113.976 26.5222ZM47.4426 14.966C46.9159 14.966 46.4603 14.9386 46.0811 14.8922V8.80169C46.6115 8.71436 47.1475 8.67132 47.6842 8.67295C49.8557 8.67295 50.8557 9.81173 50.8557 11.668C50.8557 13.8093 49.6745 14.966 47.4426 14.966ZM47.7605 9.45391C47.4675 9.45391 47.2179 9.47284 47.0109 9.51828V14.1481C47.1229 14.1671 47.3378 14.1756 47.6398 14.1756C49.0626 14.1756 49.8726 13.3123 49.8726 11.6955C49.8726 10.2538 49.1398 9.45391 47.7605 9.45391ZM53.9722 15.0124C52.7484 15.0124 51.9553 14.0383 51.9553 12.7159C51.9553 11.3377 52.7652 10.3551 54.0415 10.3551C55.2476 10.3551 56.0585 11.2828 56.0585 12.643C56.0585 14.0383 55.2227 15.0124 53.9722 15.0124ZM54.0078 11.0802C53.3354 11.0802 52.9047 11.7504 52.9047 12.6875C52.9047 13.6067 53.3443 14.2769 53.9989 14.2769C54.6534 14.2769 55.0931 13.5603 55.0931 12.6686C55.0931 11.7598 54.6623 11.0802 54.0078 11.0802ZM63.0375 10.4469L61.7275 14.9111H60.874L60.3313 12.9725C60.1964 12.4982 60.0841 12.0171 59.9947 11.5308H59.977C59.9086 12.0173 59.7789 12.5048 59.6413 12.9725L59.064 14.9111H58.2016L56.9688 10.4469H57.9254L58.3996 12.5692C58.5115 13.0747 58.6057 13.5518 58.6838 14.0024H58.7016C58.77 13.6266 58.8819 13.157 59.0462 12.5787L59.6413 10.4478H60.3997L60.969 12.5332C61.1067 13.0387 61.2186 13.5347 61.3056 14.0033H61.3305C61.3909 13.5442 61.4859 13.0567 61.6147 12.5332L62.1236 10.4478L63.0375 10.4469ZM67.8602 14.9111H66.9294V12.3477C66.9294 11.5582 66.6452 11.1625 66.0847 11.1625C65.5332 11.1625 65.154 11.668 65.154 12.2559V14.9111H64.2232V11.7229C64.2232 11.3282 64.2143 10.9051 64.1886 10.446H65.0074L65.051 11.1351H65.0767C65.3272 10.658 65.8352 10.3551 66.4045 10.3551C67.2837 10.3551 67.861 11.0717 67.861 12.2379L67.8602 14.9111ZM70.4269 14.9111H69.4952V8.39844H70.4269V14.9111ZM73.8205 15.0124C72.5975 15.0124 71.8035 14.0383 71.8035 12.7159C71.8035 11.3377 72.6135 10.3551 73.8889 10.3551C75.0959 10.3551 75.9059 11.2828 75.9059 12.643C75.9067 14.0383 75.0701 15.0124 73.8205 15.0124ZM73.8551 11.0802C73.1828 11.0802 72.7521 11.7504 72.7521 12.6875C72.7521 13.6067 73.1926 14.2769 73.8454 14.2769C74.5008 14.2769 74.9396 13.5603 74.9396 12.6686C74.9404 11.7598 74.5106 11.0802 73.8551 11.0802ZM79.5757 14.9111L79.5082 14.3971H79.4833C79.1991 14.8108 78.7843 15.0124 78.2586 15.0124C77.5081 15.0124 76.9752 14.452 76.9752 13.6985C76.9752 12.5967 77.8713 12.0268 79.4229 12.0268V11.9444C79.4229 11.3566 79.1307 11.0622 78.5534 11.0622C78.1404 11.0622 77.7781 11.173 77.4592 11.3935L77.2701 10.7413C77.6573 10.4838 78.1404 10.3551 78.708 10.3551C79.8022 10.3551 80.3546 10.9704 80.3546 12.2019V13.8462C80.3546 14.2968 80.3732 14.6461 80.415 14.9121L79.5757 14.9111ZM79.4478 12.6875C78.414 12.6875 77.8953 12.9545 77.8953 13.5878C77.8953 14.0563 78.1626 14.2854 78.5339 14.2854C79.0073 14.2854 79.4478 13.9001 79.4478 13.3767V12.6875ZM84.8744 14.9111L84.8308 14.1945H84.8051C84.5377 14.736 84.0883 15.0124 83.4604 15.0124C82.4506 15.0124 81.7028 14.0658 81.7028 12.7339C81.7028 11.3377 82.4781 10.3541 83.5368 10.3541C84.0972 10.3541 84.4942 10.5558 84.718 10.9609H84.7367V8.39844H85.6684V13.708C85.6684 14.1396 85.6781 14.5438 85.703 14.9111H84.8744ZM84.7367 12.2843C84.7367 11.6595 84.3486 11.1266 83.7562 11.1266C83.0661 11.1266 82.6442 11.7788 82.6442 12.697C82.6442 13.5972 83.0821 14.2135 83.7375 14.2135C84.3228 14.2135 84.7367 13.6711 84.7367 13.0283V12.2843ZM91.5754 15.0124C90.3524 15.0124 89.5593 14.0383 89.5593 12.7159C89.5593 11.3377 90.3693 10.3551 91.6447 10.3551C92.8517 10.3551 93.6617 11.2828 93.6617 12.643C93.6625 14.0383 92.8268 15.0124 91.5754 15.0124ZM91.61 11.0802C90.9386 11.0802 90.5079 11.7504 90.5079 12.6875C90.5079 13.6067 90.9475 14.2769 91.6012 14.2769C92.2566 14.2769 92.6954 13.5603 92.6954 12.6686C92.6971 11.7598 92.2664 11.0802 91.61 11.0802ZM98.6672 14.9111H97.7356V12.3477C97.7356 11.5582 97.4514 11.1625 96.8909 11.1625C96.3394 11.1625 95.9611 11.668 95.9611 12.2559V14.9111H95.0294V11.7229C95.0294 11.3282 95.0205 10.9051 94.9948 10.446H95.8136L95.8571 11.1351H95.8829C96.1325 10.658 96.6414 10.3541 97.2098 10.3541C98.0891 10.3541 98.6672 11.0707 98.6672 12.2369V14.9111ZM104.93 11.1909H103.906V13.3587C103.906 13.9105 104.085 14.186 104.447 14.186C104.612 14.186 104.749 14.1671 104.86 14.1396L104.886 14.8931C104.706 14.967 104.464 15.0039 104.164 15.0039C103.43 15.0039 102.992 14.5722 102.992 13.442V11.1909H102.381V10.4469H102.992V9.62903L103.906 9.33463V10.446H104.93V11.1909ZM109.857 14.9111H108.927V12.3666C108.927 11.5677 108.644 11.1635 108.082 11.1635C107.6 11.1635 107.151 11.5128 107.151 12.2199V14.9111H106.221V8.39844H107.151V11.0802H107.169C107.463 10.5936 107.887 10.3541 108.429 10.3541C109.315 10.3541 109.857 11.0887 109.857 12.2559V14.9111ZM114.905 12.9176H112.112C112.13 13.7629 112.655 14.24 113.432 14.24C113.845 14.24 114.225 14.1661 114.561 14.0289L114.705 14.718C114.309 14.9016 113.843 14.9935 113.3 14.9935C111.99 14.9935 111.215 14.1112 111.215 12.7434C111.215 11.3746 112.009 10.3456 113.196 10.3456C114.266 10.3456 114.937 11.1909 114.937 12.4679C114.943 12.6186 114.932 12.7695 114.905 12.9176ZM114.052 12.2104C114.052 11.5213 113.726 11.0347 113.131 11.0347C112.596 11.0347 112.173 11.5308 112.113 12.2104H114.052Z" fill="white"/>
</g>
<defs>
<linearGradient id="paint0_linear_6333_2955" x1="98.2774" y1="42.1113" x2="98.2774" y2="-109.36" gradientUnits="userSpaceOnUse">
<stop stop-color="#1A1A1A" stop-opacity="0.1"/>
<stop offset="0.123" stop-color="#212121" stop-opacity="0.151"/>
<stop offset="0.308" stop-color="#353535" stop-opacity="0.227"/>
<stop offset="0.532" stop-color="#575757" stop-opacity="0.318"/>
<stop offset="0.783" stop-color="#858585" stop-opacity="0.421"/>
<stop offset="1" stop-color="#B3B3B3" stop-opacity="0.51"/>
</linearGradient>
</defs>
</svg>
